# xmcd
#
# Track frame offsets:
#	150
#	20810
#	38758
#	55593
#	75628
#	93388
#	110698
#	128258
#	150231
#	171179
#
# Disc length: 2486 seconds
#
# Revision: 1
# Processed by: cddbd v1.5.2PL0 Copyright (c) Steve Scherf et al.
# Submitted via: audiograbber 1.83.01
#
DISCID=6c09b40a
DTITLE=Just Can't Help Feelin' - Jessa Zaragoza
DYEAR=1997
DGENRE=Pop
TTITLE0=Just Can't Help Feelin'
TTITLE1='Di Ba't Ikaw
TTITLE2=Panghabangbuhay
TTITLE3=Bakit Pa
TTITLE4=Loving You
TTITLE5=Pa'no Kaya
TTITLE6='Coz I Believe
TTITLE7=Paano Ba Aaminin
TTITLE8=Goin' Crazy
TTITLE9=Don't Leave Me, Baby
EXTD=
EXTT0=
EXTT1=
EXTT2=
EXTT3=
EXTT4=
EXTT5=
EXTT6=
EXTT7=
EXTT8=
EXTT9=
PLAYORDER=
